<svg width="24" height="24" viewBox="0 0 24 24" fill="none" xmlns="http://www.w3.org/2000/svg">
<g clip-path="url(#clip0_36_1283)">
<path fill-rule="evenodd" clip-rule="evenodd" d="M11.9971 15.486C10.3436 15.486 9.00809 14.147 9.00809 12.4955C9.00809 10.853 10.3431 9.5145 11.9971 9.5145C13.6511 9.5145 14.9901 10.853 14.9901 12.4955C14.9901 14.147 13.6506 15.486 11.9971 15.486ZM12.0026 7C7.90008 7 5.30306 10.052 4.24655 11.6065C3.92355 12.086 3.91605 12.917 4.23505 13.3975C5.26756 14.961 7.81758 18 12.0026 18C16.1827 18 18.7332 14.961 19.7652 13.3975C20.0847 12.917 20.0757 12.086 19.7532 11.6065C18.6967 10.052 16.1047 7 12.0026 7Z" stroke="#888888" stroke-linecap="round" stroke-linejoin="round"/>
</g>
<defs>
<clipPath id="clip0_36_1283">
<rect width="24" height="24" fill="white"/>
</clipPath>
</defs>
</svg>
