<svg width="119" height="40" viewBox="0 0 119 40" fill="none" xmlns="http://www.w3.org/2000/svg">
<path d="M0.168296 19.8206C0.168296 30.6354 9.03861 39.4536 19.9173 39.4536C30.796 39.4536 39.6663 30.6354 39.6663 19.8206C39.6663 9.00572 30.796 0.187469 19.9173 0.187469C9.03861 0.187469 0.168296 9.00572 0.168296 19.8206ZM2.62297 19.8206C2.62297 10.3368 10.3775 2.62774 19.9173 2.62774C29.4571 2.62774 37.2116 10.3368 37.2116 19.8206C37.2116 29.3043 29.4571 37.0134 19.9173 37.0134C10.3775 37.0134 2.62297 29.3043 2.62297 19.8206Z" fill="white"/>
<path d="M9.75712 16.7326L9.75712 18.6062L11.0833 18.6062L11.0833 16.7326C11.1008 11.8926 15.0446 7.97194 19.8958 7.97194C24.7818 7.97194 28.7256 11.8926 28.7082 16.7326L28.7256 19.6991L30.0518 19.6991L30.0518 16.75C30.0518 11.164 25.5148 6.6535 19.9132 6.63616C14.3117 6.6535 9.75712 11.1813 9.75712 16.7326ZM12.4619 15.9173L13.8056 15.9346C14.207 12.9334 16.8071 10.6262 19.9132 10.6262C23.2986 10.6262 26.0557 13.3671 26.0557 16.7326L26.0557 20.2716L28.7256 22.9258C28.7256 27.7485 24.7644 31.6865 19.9132 31.6865C18.5172 31.6865 17.191 31.3396 16.0218 30.7671L15.0446 31.7386C16.4929 32.5539 18.1333 33.005 19.9132 33.005C25.4973 33.005 30.0518 28.4772 30.0518 22.9258L30.0518 22.3707L27.3819 19.7165L27.3819 16.7326C27.3819 12.6385 24.0315 9.30773 19.9132 9.30773C16.0567 9.29038 12.8807 12.2048 12.4619 15.9173ZM15.1667 15.9346L16.5278 15.9346C16.8769 14.408 18.2729 13.2631 19.8958 13.2804C21.8153 13.2804 23.3858 14.8417 23.3858 16.75L23.3858 19.6991L13.8056 29.2231L12.8633 28.2863L20.5763 20.6186L20.5763 18.745C21.4314 18.4848 22.0596 17.6868 22.0421 16.7326C22.0421 15.553 21.0824 14.5988 19.8958 14.5988C18.7091 14.5988 17.7494 15.553 17.7494 16.7326C17.7668 17.6868 18.3776 18.4674 19.2501 18.745L19.2326 20.0808L10.9786 28.2863L13.8056 31.0967L24.712 20.2543L24.7295 20.2716L24.7295 16.7326C24.7295 14.0958 22.5657 11.9446 19.9132 11.9446C17.54 11.9446 15.5506 13.6794 15.1667 15.9346ZM19.093 16.75C19.093 16.2989 19.4595 15.9346 19.9132 15.9346C20.3669 15.9346 20.7159 16.2816 20.7159 16.7326C20.7159 17.1837 20.3495 17.548 19.9132 17.5306C19.4595 17.5306 19.093 17.1663 19.093 16.75ZM14.5909 17.201L9.75712 22.0064L10.6994 22.9432L14.5909 19.0746L15.5332 20.0114L10.1236 25.3892L11.0659 26.326L17.4178 20.0114L14.5909 17.201ZM26.0557 22.9085C26.0557 26.274 23.2986 29.0149 19.9132 29.0149C19.2675 29.0323 18.6393 28.9282 18.0635 28.7374L17.0165 29.7782C17.9064 30.1426 18.8836 30.3507 19.8958 30.3507C24.0489 30.3507 27.3994 27.0199 27.3819 22.9085L26.0557 22.9085ZM23.3858 22.9258C23.3858 24.6259 22.1469 26.0311 20.5065 26.3087L19.1803 27.6271C19.4071 27.6792 19.6689 27.6965 19.9132 27.6965C22.5657 27.6965 24.7295 25.5454 24.7295 22.9085L23.3858 22.9258Z" fill="white"/>
<path d="M43.2642 20.0633C43.2642 24.0314 45.9845 26.9632 50.2556 26.9632C53.5607 26.9632 55.3403 24.9918 55.8488 24.0567L53.5353 22.3128C53.1539 22.8688 52.1115 23.9303 50.3065 23.9303C48.3489 23.9303 46.9251 22.6666 46.8489 20.8974H56.2047C56.2301 20.6447 56.2301 20.3919 56.2301 20.1392C56.2301 15.8173 53.8912 13.0876 49.7726 13.0876C45.9845 13.0876 43.2642 16.07 43.2642 20.0633ZM46.9506 18.6227C47.1031 17.1063 48.1709 15.9436 49.8234 15.9436C51.4251 15.9436 52.5946 17.0052 52.6709 18.6227H46.9506Z" fill="white"/>
<path d="M62.2642 26.9632C65.1371 26.9632 67.3744 25.3457 67.3744 22.7677C67.3744 18.0414 61.0693 19.0524 61.0693 16.9546C61.0693 16.2975 61.6286 15.8931 62.4422 15.8931C63.6879 15.8931 64.4252 16.6513 64.832 17.1568L67.1455 15.4382C66.51 14.4019 65.1117 13.0876 62.5947 13.0876C59.8744 13.0876 57.7643 14.5536 57.7643 17.0052C57.7643 21.7062 64.0439 20.9227 64.0439 22.9446C64.0439 23.7028 63.4083 24.1325 62.4168 24.1325C60.9168 24.1325 60.027 23.4501 59.3659 22.6919L57.3066 24.5116C58.0185 25.649 59.6456 26.9632 62.2642 26.9632Z" fill="white"/>
<path d="M69.2426 26.5195H72.751V13.3011H69.2426V26.5195ZM68.9375 10.1165C68.9375 11.2539 69.8273 12.1132 70.9714 12.1132C72.1409 12.1132 73.0307 11.2539 73.0307 10.1165C73.0307 8.9792 72.1409 8.11987 70.9714 8.11987C69.8273 8.11987 68.9375 8.9792 68.9375 10.1165Z" fill="white"/>
<path d="M76.5003 30.2742C77.6952 30.9313 79.5511 31.4873 81.3816 31.4873C85.2968 31.4873 88.5256 29.895 88.5256 24.9666V13.4162H85.2205V14.8063C84.8392 14.3008 83.4917 13.0876 81.2545 13.0876C77.4664 13.0876 74.7715 15.9689 74.7715 20.0381C74.7715 24.1072 77.2884 26.9632 81.1274 26.9632C83.4409 26.9632 84.7375 25.649 85.0172 25.2699V25.8764C85.0172 27.9237 83.2629 28.505 81.3562 28.505C79.5257 28.505 78.0003 27.8226 77.5681 27.5951L76.5003 30.2742ZM85.1188 20.0128C85.1188 22.3633 83.746 23.8798 81.7121 23.8798C79.7291 23.8798 78.3054 22.338 78.3054 20.0128C78.3054 17.6876 79.7036 16.1711 81.6867 16.1711C83.746 16.1711 85.1188 17.7634 85.1188 20.0128Z" fill="white"/>
<path d="M98.1609 13.0876C96.4321 13.0876 95.1609 14.0481 94.6016 14.9579V13.4162H91.1694V26.6346H94.6779V18.6985C94.6779 17.2832 95.5931 16.2217 97.0423 16.2217C98.2372 16.2217 99.2541 17.1315 99.2541 18.5974V26.6346H102.763V19.0018C102.763 16.1964 101.949 13.0876 98.1609 13.0876Z" fill="white"/>
<path d="M104.66 20.0633C104.66 24.0567 107.66 26.9632 111.804 26.9632C115.973 26.9632 118.973 24.0567 118.973 20.0633C118.973 16.07 115.871 13.0876 111.804 13.0876C107.761 13.0876 104.66 16.0447 104.66 20.0633ZM108.168 20.0633C108.168 17.7887 109.694 16.1711 111.804 16.1711C113.914 16.1711 115.465 17.8139 115.465 20.0633C115.465 22.3128 113.914 23.8798 111.804 23.8798C109.719 23.8798 108.168 22.3128 108.168 20.0633Z" fill="white"/>
</svg>
